# xmcd CD database file
#
# Track frame offsets:
#	150
#	18141
#	41928
#	57685
#	75580
#	97258
#	117559
#	135356
#	153543
#	171543
#	191470
#	213162
#	230416
#	251487
#
# Disc length: 3698 seconds
#
# Revision: 0
# Processed by: cddbd v1.5.2PL0 Copyright (c) Steve Scherf et al.
# Submitted via: CDex 1.70beta2
#
DISCID=c40e700e
DTITLE=Spider MacKenzie/Steve Crawford - 5am
DYEAR=2008
DGENRE=Blues
TTITLE0=Hard And Heavy Rain
TTITLE1=5am
TTITLE2=Folsom Prison Blues
TTITLE3=You Don't Talk For Me
TTITLE4=Light
TTITLE5=The Heart of Saturday Night
TTITLE6=The Door
TTITLE7=Dindi
TTITLE8=Raspberry Beret
TTITLE9=Gather Round
TTITLE10=Enlightenment
TTITLE11=Hug the Bug
TTITLE12=I Wanted to Write You a Letter
TTITLE13=Rosie
EXTD=YEAR: 2008
EXTT0=
EXTT1=
EXTT2=
EXTT3=
EXTT4=
EXTT5=
EXTT6=
EXTT7=
EXTT8=
EXTT9=
EXTT10=
EXTT11=
EXTT12=
EXTT13=
PLAYORDER=
